<?xml version="1.0" ?><svg style="enable-background:new 0 0 512 512;" version="1.1" viewBox="0 0 512 512" xml:space="preserve" xmlns="http://www.w3.org/2000/svg" xmlns:xlink="http://www.w3.org/1999/xlink"><style type="text/css">
	.st0{fill:#1E1E1E;}
	.st1{fill:#464646;stroke:#21759B;stroke-width:2;stroke-miterlimit:10;}
	.st2{fill:#FFFFFF;}
</style><g id="Edges"/><g id="Background_Bottom"><g><path class="st0" d="M492.3,443.1c0,34.2-27.7,61.9-61.9,61.9H80.7c-34.2,0-61.9-27.7-61.9-61.9V93.4c0-34.2,27.7-61.9,61.9-61.9    h349.7c34.2,0,61.9,27.7,61.9,61.9V443.1z"/></g></g><g id="Background"><path class="st1" d="M492.3,418.4c0,34.2-27.7,61.9-61.9,61.9H80.7c-34.2,0-61.9-27.7-61.9-61.9V68.6c0-34.2,27.7-61.9,61.9-61.9   h349.7c34.2,0,61.9,27.7,61.9,61.9V418.4z"/></g><g id="Symbol"><path class="st2" d="M224.1,403.3c0-21.4-0.1-42.9-0.1-64.3c0-21.7,0-43.4,0-65.1c0-1.4,0-2.9,0-4.8c-1.5,0-2.8,0-4.1,0   c-12.4,0-24.8-0.1-37.2,0.1c-3,0-4.2-0.6-4.2-3.9c0.2-15.1,0.1-30.1,0-45.2c0-3,0.9-4,3.9-3.9c12.3,0.1,24.6,0.1,36.9,0.1   c1.4,0,2.8,0,4.7,0c0-1.8,0-3.2,0-4.6c0.2-14.7-0.3-29.4,0.7-44.1c2.2-33.3,25.7-56.7,59.1-58.4c15.1-0.8,30.3,0.7,45.4,1.1   c2.7,0.1,3.4,1.2,3.4,3.8c-0.1,13.5-0.1,27,0,40.5c0,2.9-1,3.7-3.8,3.7c-9.9,0-19.8-0.2-29.6,0.3c-13.3,0.6-19.7,7.4-20,20.7   c-0.3,12.1-0.1,24.3-0.1,36.9c1.5,0.1,2.9,0.2,4.3,0.2c14.3,0,28.7,0,43,0c4.2,0,4.3,0.2,3.8,4.3c-1.9,14.3-3.7,28.6-5.5,43   c-0.7,5.7-0.7,5.7-6.5,5.7c-11.6,0-23.1,0-34.7,0c-1.3,0-2.6,0-4.5,0c0,45,0,89.6,0,134.2C260.8,403.3,242.4,403.3,224.1,403.3z"/></g></svg>